<mxfile host="app.diagrams.net" modified="2021-09-25T15:28:03.540Z" agent="5.0 (X11)" etag="yO-Mh-pQNBAXsd5qRwfL" version="15.3.1" type="github">
  <diagram id="SryDiM5YWpMz4FTklo_S" name="Page-1">
    <mxGraphModel dx="2624" dy="1527" grid="1" gridSize="10" guides="1" tooltips="1" connect="1" arrows="1" fold="1" page="1" pageScale="1" pageWidth="827" pageHeight="1169" math="0" shadow="0">
      <root>
        <mxCell id="0" />
        <mxCell id="1" parent="0" />
        <mxCell id="Tb57GV2a2iVEQUIn0Gqh-1" value="&lt;font style=&quot;font-size: 22px&quot;&gt;&lt;b&gt;N-Genius Payment Gateway Service&lt;br&gt;&lt;/b&gt;&lt;/font&gt;" style="text;html=1;strokeColor=none;fillColor=none;align=center;verticalAlign=middle;whiteSpace=wrap;rounded=0;" vertex="1" parent="1">
          <mxGeometry x="214" y="30" width="400" height="20" as="geometry" />
        </mxCell>
        <mxCell id="Tb57GV2a2iVEQUIn0Gqh-9" value="" style="group" vertex="1" connectable="0" parent="1">
          <mxGeometry x="230" y="210" width="310" height="250" as="geometry" />
        </mxCell>
        <mxCell id="Tb57GV2a2iVEQUIn0Gqh-5" value="" style="rounded=0;whiteSpace=wrap;html=1;" vertex="1" parent="Tb57GV2a2iVEQUIn0Gqh-9">
          <mxGeometry y="-30" width="310" height="250" as="geometry" />
        </mxCell>
        <mxCell id="Tb57GV2a2iVEQUIn0Gqh-2" value="&lt;font style=&quot;font-size: 13px&quot;&gt;&lt;b&gt;Get Access Token&lt;br&gt;&lt;/b&gt;&lt;/font&gt;" style="rounded=0;whiteSpace=wrap;html=1;" vertex="1" parent="Tb57GV2a2iVEQUIn0Gqh-9">
          <mxGeometry x="30" width="250" height="80" as="geometry" />
        </mxCell>
        <mxCell id="Tb57GV2a2iVEQUIn0Gqh-3" value="&lt;b&gt;Post Order Details to Create Order API&lt;br&gt;&lt;/b&gt;" style="rounded=0;whiteSpace=wrap;html=1;" vertex="1" parent="Tb57GV2a2iVEQUIn0Gqh-9">
          <mxGeometry x="30" y="120" width="250" height="70" as="geometry" />
        </mxCell>
        <mxCell id="Tb57GV2a2iVEQUIn0Gqh-8" style="edgeStyle=orthogonalEdgeStyle;rounded=0;orthogonalLoop=1;jettySize=auto;html=1;" edge="1" parent="Tb57GV2a2iVEQUIn0Gqh-9" source="Tb57GV2a2iVEQUIn0Gqh-2" target="Tb57GV2a2iVEQUIn0Gqh-3">
          <mxGeometry relative="1" as="geometry" />
        </mxCell>
        <mxCell id="Tb57GV2a2iVEQUIn0Gqh-34" style="edgeStyle=orthogonalEdgeStyle;rounded=0;orthogonalLoop=1;jettySize=auto;html=1;entryX=0;entryY=0.5;entryDx=0;entryDy=0;fontSize=16;" edge="1" parent="1" source="Tb57GV2a2iVEQUIn0Gqh-11" target="Tb57GV2a2iVEQUIn0Gqh-33">
          <mxGeometry relative="1" as="geometry" />
        </mxCell>
        <mxCell id="Tb57GV2a2iVEQUIn0Gqh-11" value="&lt;div&gt;&lt;b&gt;Redirect to the payment url received from &lt;br&gt;&lt;/b&gt;&lt;/div&gt;&lt;div&gt;&lt;b&gt;Create Order API&lt;/b&gt;&lt;/div&gt;" style="rounded=0;whiteSpace=wrap;html=1;" vertex="1" parent="1">
          <mxGeometry x="230" y="460" width="310" height="90" as="geometry" />
        </mxCell>
        <mxCell id="Tb57GV2a2iVEQUIn0Gqh-12" style="edgeStyle=orthogonalEdgeStyle;rounded=0;orthogonalLoop=1;jettySize=auto;html=1;entryX=0.5;entryY=0;entryDx=0;entryDy=0;" edge="1" parent="1" source="Tb57GV2a2iVEQUIn0Gqh-5" target="Tb57GV2a2iVEQUIn0Gqh-11">
          <mxGeometry relative="1" as="geometry" />
        </mxCell>
        <mxCell id="Tb57GV2a2iVEQUIn0Gqh-22" style="edgeStyle=orthogonalEdgeStyle;rounded=0;orthogonalLoop=1;jettySize=auto;html=1;entryX=0.5;entryY=0;entryDx=0;entryDy=0;" edge="1" parent="1" source="Tb57GV2a2iVEQUIn0Gqh-14" target="Tb57GV2a2iVEQUIn0Gqh-21">
          <mxGeometry relative="1" as="geometry" />
        </mxCell>
        <mxCell id="Tb57GV2a2iVEQUIn0Gqh-27" style="edgeStyle=orthogonalEdgeStyle;rounded=0;orthogonalLoop=1;jettySize=auto;html=1;entryX=1;entryY=0.5;entryDx=0;entryDy=0;" edge="1" parent="1" source="Tb57GV2a2iVEQUIn0Gqh-14" target="Tb57GV2a2iVEQUIn0Gqh-25">
          <mxGeometry relative="1" as="geometry">
            <mxPoint x="730" y="120" as="targetPoint" />
            <Array as="points">
              <mxPoint x="750" y="815" />
              <mxPoint x="750" y="120" />
            </Array>
          </mxGeometry>
        </mxCell>
        <mxCell id="Tb57GV2a2iVEQUIn0Gqh-14" value="&lt;div&gt;&lt;b&gt;Response from &lt;br&gt;&lt;/b&gt;&lt;/div&gt;&lt;div&gt;&lt;b&gt;Payment Gateway&lt;br&gt;&lt;/b&gt;&lt;/div&gt;" style="rhombus;whiteSpace=wrap;html=1;" vertex="1" parent="1">
          <mxGeometry x="300" y="730" width="170" height="170" as="geometry" />
        </mxCell>
        <mxCell id="Tb57GV2a2iVEQUIn0Gqh-17" value="&lt;font style=&quot;font-size: 15px&quot;&gt;&lt;font style=&quot;font-size: 15px&quot;&gt;capture payement detals from Customer &lt;br&gt;&lt;/font&gt;and submit&lt;br&gt;&lt;/font&gt;" style="text;html=1;strokeColor=none;fillColor=none;align=center;verticalAlign=middle;whiteSpace=wrap;rounded=0;" vertex="1" parent="1">
          <mxGeometry x="450" y="640" width="200" height="20" as="geometry" />
        </mxCell>
        <mxCell id="Tb57GV2a2iVEQUIn0Gqh-30" style="edgeStyle=orthogonalEdgeStyle;rounded=0;orthogonalLoop=1;jettySize=auto;html=1;" edge="1" parent="1" source="Tb57GV2a2iVEQUIn0Gqh-21" target="Tb57GV2a2iVEQUIn0Gqh-29">
          <mxGeometry relative="1" as="geometry" />
        </mxCell>
        <mxCell id="Tb57GV2a2iVEQUIn0Gqh-21" value="&lt;font style=&quot;font-size: 12px&quot;&gt;&lt;b&gt;Place Order in Ecomm&lt;br&gt;&lt;/b&gt;&lt;/font&gt;" style="rounded=0;whiteSpace=wrap;html=1;" vertex="1" parent="1">
          <mxGeometry x="260" y="940" width="250" height="70" as="geometry" />
        </mxCell>
        <mxCell id="Tb57GV2a2iVEQUIn0Gqh-23" value="&lt;font style=&quot;font-size: 15px;&quot;&gt;&lt;b style=&quot;font-size: 15px;&quot;&gt;Success&lt;/b&gt;&lt;/font&gt;" style="text;html=1;strokeColor=none;fillColor=none;align=center;verticalAlign=middle;whiteSpace=wrap;rounded=0;fontSize=15;" vertex="1" parent="1">
          <mxGeometry x="350" y="900" width="200" height="20" as="geometry" />
        </mxCell>
        <mxCell id="Tb57GV2a2iVEQUIn0Gqh-26" style="edgeStyle=orthogonalEdgeStyle;rounded=0;orthogonalLoop=1;jettySize=auto;html=1;entryX=0.5;entryY=0;entryDx=0;entryDy=0;" edge="1" parent="1" source="Tb57GV2a2iVEQUIn0Gqh-25" target="Tb57GV2a2iVEQUIn0Gqh-5">
          <mxGeometry relative="1" as="geometry" />
        </mxCell>
        <mxCell id="Tb57GV2a2iVEQUIn0Gqh-25" value="&lt;b&gt;Place Order&lt;/b&gt;" style="rounded=1;whiteSpace=wrap;html=1;" vertex="1" parent="1">
          <mxGeometry x="325" y="89.9970588235295" width="120" height="60" as="geometry" />
        </mxCell>
        <mxCell id="Tb57GV2a2iVEQUIn0Gqh-28" value="&lt;font style=&quot;font-size: 16px;&quot;&gt;&lt;b style=&quot;font-size: 16px;&quot;&gt;Failure&lt;/b&gt;&lt;/font&gt;" style="text;html=1;strokeColor=none;fillColor=none;align=center;verticalAlign=middle;whiteSpace=wrap;rounded=0;fontSize=16;" vertex="1" parent="1">
          <mxGeometry x="490" y="820" width="200" height="20" as="geometry" />
        </mxCell>
        <mxCell id="Tb57GV2a2iVEQUIn0Gqh-36" style="edgeStyle=orthogonalEdgeStyle;rounded=0;orthogonalLoop=1;jettySize=auto;html=1;fontSize=16;" edge="1" parent="1" source="Tb57GV2a2iVEQUIn0Gqh-29">
          <mxGeometry relative="1" as="geometry">
            <mxPoint x="350" y="640" as="targetPoint" />
            <Array as="points">
              <mxPoint x="110" y="640" />
            </Array>
          </mxGeometry>
        </mxCell>
        <mxCell id="Tb57GV2a2iVEQUIn0Gqh-29" value="" style="shape=cylinder3;whiteSpace=wrap;html=1;boundedLbl=1;backgroundOutline=1;size=15;" vertex="1" parent="1">
          <mxGeometry x="60" y="915" width="90" height="120" as="geometry" />
        </mxCell>
        <mxCell id="Tb57GV2a2iVEQUIn0Gqh-32" value="&lt;font style=&quot;font-size: 13px&quot;&gt;&lt;b&gt;Save Payment details and card details in auxiliary database&lt;/b&gt;&lt;/font&gt;" style="text;html=1;strokeColor=none;fillColor=none;align=center;verticalAlign=middle;whiteSpace=wrap;rounded=0;" vertex="1" parent="1">
          <mxGeometry x="30" y="1050" width="180" height="70" as="geometry" />
        </mxCell>
        <mxCell id="Tb57GV2a2iVEQUIn0Gqh-35" style="edgeStyle=orthogonalEdgeStyle;rounded=0;orthogonalLoop=1;jettySize=auto;html=1;entryX=0.5;entryY=0;entryDx=0;entryDy=0;fontSize=16;" edge="1" parent="1" source="Tb57GV2a2iVEQUIn0Gqh-33" target="Tb57GV2a2iVEQUIn0Gqh-14">
          <mxGeometry relative="1" as="geometry" />
        </mxCell>
        <mxCell id="Tb57GV2a2iVEQUIn0Gqh-33" value="" style="triangle;whiteSpace=wrap;html=1;fontSize=16;rotation=90;" vertex="1" parent="1">
          <mxGeometry x="345" y="584.5" width="80" height="110" as="geometry" />
        </mxCell>
        <mxCell id="Tb57GV2a2iVEQUIn0Gqh-37" value="Use saved card detail for payments" style="text;html=1;strokeColor=none;fillColor=none;align=center;verticalAlign=middle;whiteSpace=wrap;rounded=0;fontSize=16;" vertex="1" parent="1">
          <mxGeometry x="80" y="610" width="190" height="20" as="geometry" />
        </mxCell>
      </root>
    </mxGraphModel>
  </diagram>
</mxfile>
